<svg xmlns="http://www.w3.org/2000/svg" viewBox="0 0 128 128" width="128" height="128">
<ellipse cx="64" cy="112" rx="52" ry="8" fill="#1d1a2f" fill-opacity="0.18"/>
<rect x="16" y="92" width="96" height="18" rx="9" fill="#f3d9a4" stroke="#1d1a2f" stroke-width="5" stroke-linejoin="round" stroke-linecap="round"/>
<rect x="10" y="72" width="108" height="24" rx="12" fill="#7a4422" stroke="#1d1a2f" stroke-width="5" stroke-linejoin="round" stroke-linecap="round"/>
<path d="M14,72 L114,72 L108,80 L98,74 L88,88 L78,74 L64,86 L52,74 L40,88 L30,74 L20,82 Z" fill="#f6c94c" stroke="#1d1a2f" stroke-width="4" stroke-linejoin="round" stroke-linecap="round"/>
<path d="M10,66 Q20,56 30,66 Q40,56 50,66 Q60,56 70,66 Q80,56 90,66 Q100,56 110,66 L118,70 L10,70 Z" fill="#7ccf5a" stroke="#1d1a2f" stroke-width="4" stroke-linejoin="round" stroke-linecap="round"/>
<path d="M14,62 C14,14 114,14 114,62 Z" fill="#e0a85a" stroke="#1d1a2f" stroke-width="5" stroke-linejoin="round" stroke-linecap="round"/>
<ellipse cx="44" cy="44" rx="3" ry="1.6" fill="#fdf6e3" stroke="#1d1a2f" stroke-width="1" stroke-linejoin="round" stroke-linecap="round" transform="rotate(20 44 44)"/>
<ellipse cx="62" cy="36" rx="3" ry="1.6" fill="#fdf6e3" stroke="#1d1a2f" stroke-width="1" stroke-linejoin="round" stroke-linecap="round" transform="rotate(-10 62 36)"/>
<ellipse cx="80" cy="42" rx="3" ry="1.6" fill="#fdf6e3" stroke="#1d1a2f" stroke-width="1" stroke-linejoin="round" stroke-linecap="round" transform="rotate(30 80 42)"/>
<ellipse cx="54" cy="54" rx="3" ry="1.6" fill="#fdf6e3" stroke="#1d1a2f" stroke-width="1" stroke-linejoin="round" stroke-linecap="round" transform="rotate(-30 54 54)"/>
<ellipse cx="74" cy="52" rx="3" ry="1.6" fill="#fdf6e3" stroke="#1d1a2f" stroke-width="1" stroke-linejoin="round" stroke-linecap="round" transform="rotate(10 74 52)"/>
<ellipse cx="92" cy="54" rx="3" ry="1.6" fill="#fdf6e3" stroke="#1d1a2f" stroke-width="1" stroke-linejoin="round" stroke-linecap="round" transform="rotate(-20 92 54)"/>
<ellipse cx="36" cy="58" rx="3" ry="1.6" fill="#fdf6e3" stroke="#1d1a2f" stroke-width="1" stroke-linejoin="round" stroke-linecap="round"/>
<ellipse cx="40" cy="34" rx="6" ry="10" fill="#ffffff" fill-opacity="0.75" transform="rotate(-30 40 34)"/>
</svg>
