<svg xmlns="http://www.w3.org/2000/svg" viewBox="0 0 128 128" width="128" height="128">
<ellipse cx="64" cy="112" rx="46" ry="8" fill="#1d1a2f" fill-opacity="0.18"/>
<path d="M30.0,104.0 Q64.8,86.3 60.0,47.5 Q25.2,65.2 30.0,104.0 Z" fill="#3fae49" stroke="#1d1a2f" stroke-width="5" stroke-linejoin="round" stroke-linecap="round"/>
<line x1="30.0" y1="104.0" x2="45.0" y2="75.7" stroke="#1d1a2f" stroke-width="2" stroke-opacity="0.6"/>
<g transform="rotate(20 64 64)"><rect x="46" y="18" width="36" height="92" rx="18" fill="#f6d860" stroke="#1d1a2f" stroke-width="5" stroke-linejoin="round" stroke-linecap="round"/><circle cx="55" cy="28.0" r="3.4" fill="#f7b32b" stroke="#1d1a2f" stroke-width="1.5" stroke-linejoin="round" stroke-linecap="round"/>
<circle cx="64" cy="28.0" r="3.4" fill="#f7b32b" stroke="#1d1a2f" stroke-width="1.5" stroke-linejoin="round" stroke-linecap="round"/>
<circle cx="73" cy="28.0" r="3.4" fill="#f7b32b" stroke="#1d1a2f" stroke-width="1.5" stroke-linejoin="round" stroke-linecap="round"/>
<circle cx="55" cy="37.5" r="3.4" fill="#f7b32b" stroke="#1d1a2f" stroke-width="1.5" stroke-linejoin="round" stroke-linecap="round"/>
<circle cx="64" cy="37.5" r="3.4" fill="#f7b32b" stroke="#1d1a2f" stroke-width="1.5" stroke-linejoin="round" stroke-linecap="round"/>
<circle cx="73" cy="37.5" r="3.4" fill="#f7b32b" stroke="#1d1a2f" stroke-width="1.5" stroke-linejoin="round" stroke-linecap="round"/>
<circle cx="55" cy="47.0" r="3.4" fill="#f7b32b" stroke="#1d1a2f" stroke-width="1.5" stroke-linejoin="round" stroke-linecap="round"/>
<circle cx="64" cy="47.0" r="3.4" fill="#f7b32b" stroke="#1d1a2f" stroke-width="1.5" stroke-linejoin="round" stroke-linecap="round"/>
<circle cx="73" cy="47.0" r="3.4" fill="#f7b32b" stroke="#1d1a2f" stroke-width="1.5" stroke-linejoin="round" stroke-linecap="round"/>
<circle cx="55" cy="56.5" r="3.4" fill="#f7b32b" stroke="#1d1a2f" stroke-width="1.5" stroke-linejoin="round" stroke-linecap="round"/>
<circle cx="64" cy="56.5" r="3.4" fill="#f7b32b" stroke="#1d1a2f" stroke-width="1.5" stroke-linejoin="round" stroke-linecap="round"/>
<circle cx="73" cy="56.5" r="3.4" fill="#f7b32b" stroke="#1d1a2f" stroke-width="1.5" stroke-linejoin="round" stroke-linecap="round"/>
<circle cx="55" cy="66.0" r="3.4" fill="#f7b32b" stroke="#1d1a2f" stroke-width="1.5" stroke-linejoin="round" stroke-linecap="round"/>
<circle cx="64" cy="66.0" r="3.4" fill="#f7b32b" stroke="#1d1a2f" stroke-width="1.5" stroke-linejoin="round" stroke-linecap="round"/>
<circle cx="73" cy="66.0" r="3.4" fill="#f7b32b" stroke="#1d1a2f" stroke-width="1.5" stroke-linejoin="round" stroke-linecap="round"/>
<circle cx="55" cy="75.5" r="3.4" fill="#f7b32b" stroke="#1d1a2f" stroke-width="1.5" stroke-linejoin="round" stroke-linecap="round"/>
<circle cx="64" cy="75.5" r="3.4" fill="#f7b32b" stroke="#1d1a2f" stroke-width="1.5" stroke-linejoin="round" stroke-linecap="round"/>
<circle cx="73" cy="75.5" r="3.4" fill="#f7b32b" stroke="#1d1a2f" stroke-width="1.5" stroke-linejoin="round" stroke-linecap="round"/>
<circle cx="55" cy="85.0" r="3.4" fill="#f7b32b" stroke="#1d1a2f" stroke-width="1.5" stroke-linejoin="round" stroke-linecap="round"/>
<circle cx="64" cy="85.0" r="3.4" fill="#f7b32b" stroke="#1d1a2f" stroke-width="1.5" stroke-linejoin="round" stroke-linecap="round"/>
<circle cx="73" cy="85.0" r="3.4" fill="#f7b32b" stroke="#1d1a2f" stroke-width="1.5" stroke-linejoin="round" stroke-linecap="round"/>
<circle cx="55" cy="94.5" r="3.4" fill="#f7b32b" stroke="#1d1a2f" stroke-width="1.5" stroke-linejoin="round" stroke-linecap="round"/>
<circle cx="64" cy="94.5" r="3.4" fill="#f7b32b" stroke="#1d1a2f" stroke-width="1.5" stroke-linejoin="round" stroke-linecap="round"/>
<circle cx="73" cy="94.5" r="3.4" fill="#f7b32b" stroke="#1d1a2f" stroke-width="1.5" stroke-linejoin="round" stroke-linecap="round"/></g>
<path d="M98.0,106.0 Q102.5,69.7 69.8,53.0 Q65.4,89.4 98.0,106.0 Z" fill="#4cc457" stroke="#1d1a2f" stroke-width="5" stroke-linejoin="round" stroke-linecap="round"/>
<line x1="98.0" y1="106.0" x2="83.9" y2="79.5" stroke="#1d1a2f" stroke-width="2" stroke-opacity="0.6"/>
</svg>
