<svg xmlns="http://www.w3.org/2000/svg" viewBox="0 0 128 128" width="128" height="128">
<ellipse cx="64" cy="112" rx="46" ry="8" fill="#1d1a2f" fill-opacity="0.18"/>
<rect x="22" y="34" width="84" height="66" rx="10" fill="#f6d860" stroke="#1d1a2f" stroke-width="5" stroke-linejoin="round" stroke-linecap="round"/>
<path d="M28,44 q10,-8 20,0 t20,0 t20,0 t14,0" stroke="#c49a3c" stroke-width="3" fill="none"/>
<path d="M28,54 q10,-8 20,0 t20,0 t20,0 t14,0" stroke="#c49a3c" stroke-width="3" fill="none"/>
<path d="M28,64 q10,-8 20,0 t20,0 t20,0 t14,0" stroke="#c49a3c" stroke-width="3" fill="none"/>
<path d="M28,74 q10,-8 20,0 t20,0 t20,0 t14,0" stroke="#c49a3c" stroke-width="3" fill="none"/>
<path d="M28,84 q10,-8 20,0 t20,0 t20,0 t14,0" stroke="#c49a3c" stroke-width="3" fill="none"/>
</svg>
