<svg xmlns="http://www.w3.org/2000/svg" viewBox="0 0 128 128" width="128" height="128">
<ellipse cx="64" cy="112" rx="46" ry="8" fill="#1d1a2f" fill-opacity="0.18"/>
<path d="M24,60 q8,-12 16,0" stroke="#1d1a2f" stroke-width="9" fill="none" stroke-linecap="round"/>
<path d="M38,60 q8,-12 16,0" stroke="#1d1a2f" stroke-width="9" fill="none" stroke-linecap="round"/>
<path d="M52,60 q8,-12 16,0" stroke="#1d1a2f" stroke-width="9" fill="none" stroke-linecap="round"/>
<path d="M66,60 q8,-12 16,0" stroke="#1d1a2f" stroke-width="9" fill="none" stroke-linecap="round"/>
<path d="M80,60 q8,-12 16,0" stroke="#1d1a2f" stroke-width="9" fill="none" stroke-linecap="round"/>
<path d="M94,60 q8,-12 16,0" stroke="#1d1a2f" stroke-width="9" fill="none" stroke-linecap="round"/>
<path d="M24,78 q8,-12 16,0" stroke="#1d1a2f" stroke-width="9" fill="none" stroke-linecap="round"/>
<path d="M38,78 q8,-12 16,0" stroke="#1d1a2f" stroke-width="9" fill="none" stroke-linecap="round"/>
<path d="M52,78 q8,-12 16,0" stroke="#1d1a2f" stroke-width="9" fill="none" stroke-linecap="round"/>
<path d="M66,78 q8,-12 16,0" stroke="#1d1a2f" stroke-width="9" fill="none" stroke-linecap="round"/>
<path d="M80,78 q8,-12 16,0" stroke="#1d1a2f" stroke-width="9" fill="none" stroke-linecap="round"/>
<path d="M94,78 q8,-12 16,0" stroke="#1d1a2f" stroke-width="9" fill="none" stroke-linecap="round"/>
<path d="M24,60 q8,-12 16,0" stroke="#8fd65a" stroke-width="4" fill="none" stroke-linecap="round"/>
<path d="M38,60 q8,-12 16,0" stroke="#8fd65a" stroke-width="4" fill="none" stroke-linecap="round"/>
<path d="M52,60 q8,-12 16,0" stroke="#8fd65a" stroke-width="4" fill="none" stroke-linecap="round"/>
<path d="M66,60 q8,-12 16,0" stroke="#8fd65a" stroke-width="4" fill="none" stroke-linecap="round"/>
<path d="M80,60 q8,-12 16,0" stroke="#8fd65a" stroke-width="4" fill="none" stroke-linecap="round"/>
<path d="M94,60 q8,-12 16,0" stroke="#8fd65a" stroke-width="4" fill="none" stroke-linecap="round"/>
<path d="M24,78 q8,-12 16,0" stroke="#8fd65a" stroke-width="4" fill="none" stroke-linecap="round"/>
<path d="M38,78 q8,-12 16,0" stroke="#8fd65a" stroke-width="4" fill="none" stroke-linecap="round"/>
<path d="M52,78 q8,-12 16,0" stroke="#8fd65a" stroke-width="4" fill="none" stroke-linecap="round"/>
<path d="M66,78 q8,-12 16,0" stroke="#8fd65a" stroke-width="4" fill="none" stroke-linecap="round"/>
<path d="M80,78 q8,-12 16,0" stroke="#8fd65a" stroke-width="4" fill="none" stroke-linecap="round"/>
<path d="M94,78 q8,-12 16,0" stroke="#8fd65a" stroke-width="4" fill="none" stroke-linecap="round"/>
</svg>
